<svg xmlns="http://www.w3.org/2000/svg" xmlns:xlink="http://www.w3.org/1999/xlink" viewBox="0,0,256,256" width="50px" height="50px" fill-rule="nonzero"><g fill="#000000" fill-rule="nonzero" stroke="none" stroke-width="1" stroke-linecap="butt" stroke-linejoin="miter" stroke-miterlimit="10" stroke-dasharray="" stroke-dashoffset="0" font-family="none" font-weight="none" font-size="none" text-anchor="none" style="mix-blend-mode: normal"><g transform="scale(5.12,5.12)"><path d="M24,2c-7.168,0 -13,8.29233 -13,18.48633c0,5.09469 1.485,9.66818 3.8418,13.00586c-0.56313,0.7336 -0.8418,1.62253 -0.8418,2.50781c0,0.97222 0.31868,1.95788 1.00195,2.72656c0.68327,0.76868 1.74805,1.27344 2.99805,1.27344c1.25,0 2.31477,-0.50476 2.99805,-1.27344c0.68327,-0.76868 1.00195,-1.75434 1.00195,-2.72656c0,-0.97222 -0.31868,-1.95788 -1.00195,-2.72656c-0.68327,-0.76868 -1.74805,-1.27344 -2.99805,-1.27344c-0.58208,0 -1.11768,0.11792 -1.59961,0.3125c-2.08268,-2.99471 -3.40039,-7.16846 -3.40039,-11.82617c0,-9.091 4.935,-16.48633 11,-16.48633c5.419,0 9.92322,5.90939 10.82422,13.65039c0.707,0.269 1.40852,0.57225 2.10352,0.90625c-0.681,-9.29 -6.21773,-16.55664 -12.92773,-16.55664zM22,15c-1.25,0 -2.31477,0.50476 -2.99805,1.27344c-0.68327,0.76868 -1.00195,1.75434 -1.00195,2.72656c0,0.97222 0.31868,1.95788 1.00195,2.72656c0.68327,0.76868 1.74805,1.27344 2.99805,1.27344c1.25,0 2.31477,-0.50476 2.99805,-1.27344c0.42704,-0.48043 0.69619,-1.04889 0.84961,-1.64258c3.57759,-0.15386 7.59823,0.90312 11.29492,3.11914c7.894,4.732 11.87028,12.98358 8.86328,18.39258c-1.074,1.931 -2.94892,3.30189 -5.41992,3.96289c-3.462,0.928 -7.71444,0.35748 -11.77344,-1.47852c-0.586,0.471 -1.20575,0.91666 -1.84375,1.34766c3.325,1.679 6.84375,2.56836 10.09375,2.56836c1.411,0 2.77102,-0.16586 4.04102,-0.50586c3.007,-0.805 5.30739,-2.50783 6.65039,-4.92383c3.524,-6.342 -0.77498,-15.79713 -9.58398,-21.07812c-3.97605,-2.38508 -8.34435,-3.55176 -12.2832,-3.42383c-0.14255,-0.64807 -0.42592,-1.27042 -0.88867,-1.79102c-0.68327,-0.76868 -1.74805,-1.27344 -2.99805,-1.27344zM22,17c0.75,0 1.18523,0.24524 1.50195,0.60156c0.31673,0.35632 0.49805,0.87066 0.49805,1.39844c0,0.52778 -0.18132,1.04212 -0.49805,1.39844c-0.31673,0.35632 -0.75195,0.60156 -1.50195,0.60156c-0.75,0 -1.18523,-0.24524 -1.50195,-0.60156c-0.31673,-0.35632 -0.49805,-0.87066 -0.49805,-1.39844c0,-0.52778 0.18132,-1.04212 0.49805,-1.39844c0.31673,-0.35632 0.75195,-0.60156 1.50195,-0.60156zM9.16211,23.33203c-6.964,5.44 -10.06006,13.57437 -6.91406,19.23438c1.343,2.416 3.64339,4.11688 6.65039,4.92188c1.271,0.34 2.63002,0.50781 4.04102,0.50781c3.8,0 7.97158,-1.20837 11.76758,-3.48437c4.55573,-2.73123 7.83664,-6.57859 9.50586,-10.5332c1.15487,-0.05535 2.14227,-0.5287 2.78516,-1.25195c0.68327,-0.76868 1.00195,-1.75434 1.00195,-2.72656c0,-0.97222 -0.31868,-1.95788 -1.00195,-2.72656c-0.68327,-0.76868 -1.74805,-1.27344 -2.99805,-1.27344c-1.25,0 -2.31477,0.50476 -2.99805,1.27344c-0.68327,0.76868 -1.00195,1.75434 -1.00195,2.72656c0,0.97222 0.31868,1.95788 1.00195,2.72656c0.33207,0.37358 0.75828,0.68109 1.24805,0.90234c-1.56845,3.40879 -4.53476,6.74766 -8.57227,9.16797c-4.75,2.849 -10.08167,3.88172 -14.26367,2.76172c-2.472,-0.662 -4.34497,-2.03189 -5.41797,-3.96289c-2.542,-4.573 -0.08114,-11.16794 5.50586,-15.96094c-0.145,-0.751 -0.25784,-1.52073 -0.33984,-2.30273zM34,28c0.75,0 1.18523,0.24524 1.50195,0.60156c0.31673,0.35632 0.49805,0.87066 0.49805,1.39844c0,0.52778 -0.18132,1.04212 -0.49805,1.39844c-0.31673,0.35632 -0.75195,0.60156 -1.50195,0.60156c-0.75,0 -1.18523,-0.24524 -1.50195,-0.60156c-0.31673,-0.35632 -0.49805,-0.87066 -0.49805,-1.39844c0,-0.52778 0.18132,-1.04212 0.49805,-1.39844c0.31673,-0.35632 0.75195,-0.60156 1.50195,-0.60156zM18,34c0.75,0 1.18523,0.24524 1.50195,0.60156c0.31673,0.35632 0.49805,0.87066 0.49805,1.39844c0,0.52778 -0.18132,1.04212 -0.49805,1.39844c-0.31673,0.35632 -0.75195,0.60156 -1.50195,0.60156c-0.75,0 -1.18523,-0.24524 -1.50195,-0.60156c-0.31673,-0.35632 -0.49805,-0.87066 -0.49805,-1.39844c0,-0.52778 0.18132,-1.04212 0.49805,-1.39844c0.31673,-0.35632 0.75195,-0.60156 1.50195,-0.60156z"></path></g></g></svg>